<svg width="50" height="50" viewBox="0 0 50 50" fill="none" xmlns="http://www.w3.org/2000/svg">
<circle cx="25" cy="25" r="25" fill="#EA5A0D" fill-opacity="0.2"/>
<path d="M21.5 28.5L18.0374 31.9627C17.652 32.348 17.161 32.6104 16.6265 32.7167C16.092 32.823 15.538 32.7684 15.0346 32.5599C14.5311 32.3513 14.1007 31.9982 13.7979 31.5451C13.4951 31.092 13.3335 30.5593 13.3334 30.0144V28.5L14.9165 20.5854C15.128 19.5275 15.6994 18.5755 16.5337 17.8914C17.3679 17.2074 18.4134 16.8335 19.4922 16.8334H30.5079C31.5867 16.8335 32.6322 17.2074 33.4664 17.8914C34.3006 18.5755 34.8721 19.5275 35.0835 20.5854L36.6667 28.5V30.0132C36.6666 30.5582 36.505 31.0909 36.2022 31.5439C35.8994 31.997 35.469 32.3502 34.9655 32.5587C34.4621 32.7672 33.908 32.8218 33.3736 32.7155C32.8391 32.6092 32.3481 32.3468 31.9627 31.9615L28.5 28.5H21.5Z" stroke="#EA5A0D" stroke-width="2" stroke-linecap="round" stroke-linejoin="round"/>
<path d="M21.5 16.8334L22.6667 19.1667H27.3333L28.5 16.8334" stroke="#EA5A0D" stroke-width="2" stroke-linecap="round" stroke-linejoin="round"/>
</svg>
