<svg width="189" height="70" viewBox="0 0 189 70" fill="none" xmlns="http://www.w3.org/2000/svg">
<g clip-path="url(#clip0_75_506)">
<path d="M97.3112 23.1855L106.279 22.6058C106.483 24.072 106.858 25.1631 107.472 25.9473C108.461 27.1747 109.825 27.7885 111.632 27.7885C112.962 27.7885 114.019 27.4816 114.735 26.8338C115.416 26.3223 115.826 25.504 115.826 24.6516C115.826 23.8333 115.451 23.0491 114.803 22.5376C114.121 21.9239 112.518 21.3102 109.995 20.7646C105.869 19.844 102.903 18.6165 101.164 17.0481C99.4252 15.582 98.4364 13.4339 98.5046 11.1494C98.5046 9.58098 98.982 8.01254 99.8685 6.71688C100.891 5.25073 102.289 4.09145 103.96 3.44362C105.767 2.6594 108.29 2.25024 111.461 2.25024C115.348 2.25024 118.315 2.96627 120.36 4.43242C122.406 5.86447 123.634 8.18303 124.009 11.354L115.144 11.8654C114.905 10.5016 114.428 9.51279 113.643 8.86495C112.859 8.21712 111.836 7.91025 110.507 7.91025C109.415 7.91025 108.597 8.14893 108.052 8.59218C107.54 9.00134 107.199 9.61508 107.233 10.297C107.233 10.8085 107.506 11.2858 107.915 11.5927C108.358 12.0018 109.415 12.3769 111.086 12.7179C115.212 13.6044 118.144 14.4909 119.951 15.4115C121.758 16.3321 123.054 17.4573 123.838 18.787C124.657 20.1509 125.066 21.7193 125.032 23.3218C125.032 25.2313 124.486 27.1407 123.395 28.7432C122.27 30.4139 120.701 31.7096 118.86 32.4938C116.917 33.3462 114.462 33.7895 111.529 33.7895C106.347 33.7895 102.767 32.8007 100.755 30.789C98.7433 28.7773 97.5499 26.2541 97.3112 23.1855ZM2.14808 33.278V2.79579H17.8665C20.7647 2.79579 23.0151 3.03446 24.5494 3.54591C26.0497 4.02326 27.3794 5.01206 28.266 6.34182C29.2547 7.80796 29.7321 9.51279 29.698 11.2858C29.8003 14.2863 28.266 17.1504 25.6405 18.6506C24.6176 19.2303 23.4924 19.6394 22.3332 19.844C23.1856 20.0827 24.038 20.4918 24.7881 20.9692C25.3678 21.4465 25.8451 21.9921 26.2884 22.5717C26.7998 23.1514 27.2431 23.7992 27.6181 24.4811L32.187 33.3121H21.4808L16.4345 23.9356C15.7867 22.7422 15.2411 21.958 14.7297 21.5829C14.0477 21.1056 13.2294 20.8669 12.4111 20.8669H11.5928V33.2439H2.14808V33.278ZM11.5928 15.1387H15.5821C16.4345 15.0705 17.2528 14.9341 18.0711 14.7295C18.6849 14.6273 19.2304 14.2863 19.6055 13.7748C20.5261 12.5474 20.3897 10.8085 19.2645 9.75146C18.6508 9.24002 17.4574 8.96724 15.7526 8.96724H11.5928V15.1387ZM0 59.3959L8.96736 58.8162C9.17194 60.2824 9.547 61.3735 10.1607 62.1577C11.1154 63.3852 12.5134 64.033 14.3205 64.033C15.6503 64.033 16.7073 63.7261 17.4233 63.0783C18.1052 62.5328 18.5144 61.7485 18.5144 60.8961C18.5144 60.0778 18.1393 59.2936 17.4915 58.7822C16.8095 58.1684 15.207 57.5547 12.6498 57.0091C8.52411 56.0885 5.55772 54.8611 3.8188 53.2926C2.07988 51.8265 1.09109 49.6784 1.15928 47.3939C1.15928 45.8255 1.63663 44.2571 2.52314 42.9614C3.54603 41.4953 4.94398 40.336 6.61471 39.6881C8.42182 38.9039 10.945 38.4948 14.1159 38.4948C18.0029 38.4948 20.9693 39.2108 23.0151 40.6769C25.0609 42.1431 26.2543 44.4275 26.6293 47.5985L17.7642 48.11C17.5256 46.7461 17.0482 45.7573 16.264 45.1095C15.5139 44.4616 14.4569 44.1548 13.1271 44.1889C12.036 44.1889 11.2177 44.4275 10.6722 44.9049C10.1266 45.3141 9.81978 45.9278 9.85387 46.6097C9.85387 47.1212 10.1266 47.5985 10.5358 47.9054C10.9791 48.3145 12.036 48.6896 13.7068 49.0306C17.8324 49.9171 20.7647 50.8036 22.5718 51.7242C24.379 52.6448 25.6746 53.77 26.4588 55.0997C27.2772 56.4636 27.6863 58.032 27.6863 59.6005C27.6863 61.5099 27.1067 63.3852 26.0497 64.9877C24.9245 66.6584 23.3561 67.9541 21.5149 68.7383C19.5714 69.5907 17.1164 70.034 14.1841 70.034C9.00146 70.034 5.42133 69.0452 3.40964 67.0335C1.39795 64.9877 0.272772 62.4646 0 59.3959H0Z" fill="#151618"/>
<path d="M45.3482 57.0092L53.5996 59.4983C53.1563 61.5782 52.2357 63.5558 50.9741 65.2947C49.8149 66.829 48.2805 68.0224 46.5416 68.8066C44.7686 69.5908 42.5182 70 39.7905 70C36.4832 70 33.7554 69.5226 31.6756 68.5679C29.5616 67.6132 27.7545 65.9084 26.2201 63.4876C24.6858 61.0667 23.9357 57.9639 23.9357 54.1792C23.9357 49.133 25.2654 45.246 27.9591 42.5524C30.6527 39.8587 34.4374 38.4949 39.3473 38.4949C43.2002 38.4949 46.2006 39.2791 48.4169 40.8134C50.5991 42.3819 52.2357 44.7686 53.3268 47.9737L45.0073 49.8149C44.8027 49.0989 44.4958 48.3828 44.0867 47.7691C43.5752 47.0531 42.9274 46.5075 42.1432 46.0984C41.359 45.6892 40.4724 45.5187 39.5859 45.5187C37.4379 45.5187 35.8012 46.3712 34.676 48.1101C33.8236 49.3716 33.3804 51.3833 33.3804 54.111C33.3804 57.4866 33.8918 59.8052 34.9147 61.0667C35.9376 62.3283 37.3697 62.942 39.245 62.942C41.0521 62.942 42.4159 62.4306 43.3365 61.4418C44.2572 60.3848 44.9391 58.9186 45.3482 57.0092ZM64.6127 39.0063H74.0233V49.6785H84.3205V39.0063H93.7993V69.4885H84.3205V57.1456H74.0233V69.4885H64.6127V39.0063Z" fill="#151618"/>
<path d="M92.5037 54.2473C92.5037 49.2693 93.9016 45.3823 96.6634 42.6205C99.4252 39.8586 103.312 38.4607 108.256 38.4607C113.337 38.4607 117.224 39.8246 119.985 42.5523C122.747 45.28 124.111 49.0988 124.111 54.0087C124.111 57.5888 123.497 60.487 122.304 62.7715C121.145 65.0218 119.338 66.863 117.121 68.0905C114.837 69.3521 112.007 69.9999 108.631 69.9999C105.188 69.9999 102.358 69.4544 100.107 68.3633C97.7886 67.204 95.8792 65.3969 94.6176 63.1806C93.2197 60.7939 92.5037 57.8275 92.5037 54.2473ZM101.914 54.2814C101.914 57.3501 102.494 59.5664 103.619 60.9302C104.744 62.26 106.313 62.9419 108.29 62.9419C110.302 62.9419 111.87 62.2941 112.996 60.9643C114.121 59.6346 114.666 57.2819 114.666 53.8723C114.666 51.0082 114.087 48.8942 112.927 47.5985C111.768 46.2688 110.2 45.6209 108.222 45.6209C106.483 45.5528 104.812 46.3029 103.653 47.6326C102.494 48.9624 101.914 51.1787 101.914 54.2814ZM133.76 54.2473C133.76 49.2693 135.158 45.3823 137.92 42.6205C140.682 39.8586 144.569 38.4607 149.513 38.4607C154.593 38.4607 158.514 39.8246 161.242 42.5523C163.97 45.28 165.368 49.0988 165.368 54.0087C165.368 57.5888 164.754 60.487 163.561 62.7715C162.401 65.0218 160.594 66.863 158.378 68.0905C156.094 69.3521 153.264 69.9999 149.888 69.9999C146.444 69.9999 143.614 69.4544 141.364 68.3633C139.045 67.204 137.136 65.3969 135.874 63.1806C134.476 60.7939 133.76 57.8275 133.76 54.2473ZM143.171 54.2814C143.171 57.3501 143.751 59.5664 144.876 60.9302C146.001 62.26 147.569 62.9419 149.547 62.9419C151.559 62.9419 153.127 62.2941 154.252 60.9643C155.378 59.6346 155.923 57.2819 155.923 53.8723C155.923 51.0082 155.343 48.8942 154.184 47.5985C153.025 46.2688 151.456 45.6209 149.479 45.6209C147.74 45.5528 146.035 46.3029 144.91 47.6326C143.751 48.9624 143.171 51.1787 143.171 54.2814Z" fill="#151618"/>
<path d="M164.379 39.0063H173.79V61.9874H188.485V69.4886H164.345V39.0063H164.379Z" fill="#151618"/>
<path d="M159.733 10.816C165.167 18.0259 162.591 29.5256 153.404 36.4485C144.218 43.3715 132.454 42.6778 127.02 35.4678C121.587 28.2579 124.162 16.7582 133.349 9.83524C142.536 2.91227 154.3 3.60602 159.733 10.816Z" fill="white" stroke="#151618" stroke-width="2"/>
<path d="M133.317 21.0715L136.727 18.6848L140.921 24.6517C141.637 25.6064 142.182 26.6293 142.591 27.7544C142.83 28.6069 142.762 29.5275 142.421 30.3458C141.978 31.3687 141.262 32.2211 140.307 32.8348C139.182 33.619 138.227 34.0623 137.409 34.1987C136.624 34.3351 135.806 34.1987 135.056 33.8577C134.238 33.4486 133.522 32.8689 132.976 32.1188L135.908 29.3911C136.147 29.7661 136.454 30.1071 136.795 30.3799C137.034 30.5504 137.306 30.6526 137.613 30.6526C137.852 30.6526 138.091 30.5504 138.261 30.414C138.602 30.2094 138.841 29.8002 138.807 29.3911C138.704 28.8114 138.466 28.2318 138.091 27.7885L133.317 21.0715ZM143.546 24.8562L146.649 22.4013C146.99 22.8105 147.433 23.1173 147.91 23.2878C148.592 23.4924 149.308 23.356 149.888 22.9127C150.297 22.64 150.638 22.2649 150.774 21.7876C150.979 21.1738 150.638 20.4919 150.024 20.2873C149.922 20.2532 149.82 20.2191 149.717 20.2191C149.308 20.185 148.592 20.3555 147.535 20.7988C145.796 21.5148 144.432 21.7876 143.41 21.6853C142.421 21.583 141.5 21.0715 140.955 20.2191C140.545 19.6395 140.341 18.9576 140.307 18.2756C140.307 17.4914 140.511 16.7072 140.955 16.0594C141.602 15.1388 142.387 14.3545 143.341 13.7408C144.773 12.752 146.035 12.2747 147.126 12.2747C148.217 12.2747 149.24 12.7861 150.195 13.8431L147.126 16.2639C146.512 15.4797 145.353 15.3092 144.569 15.923L144.467 16.0253C144.126 16.2298 143.887 16.5367 143.751 16.9118C143.648 17.1845 143.716 17.4914 143.887 17.7301C144.023 17.9006 144.228 18.037 144.467 18.037C144.739 18.0711 145.217 17.9347 145.899 17.6278C147.603 16.9118 148.899 16.5026 149.786 16.3662C150.536 16.2298 151.32 16.298 152.036 16.6049C152.684 16.8777 153.229 17.355 153.604 17.9347C154.082 18.6166 154.355 19.4349 154.389 20.2873C154.423 21.1738 154.184 22.0262 153.707 22.7764C153.093 23.697 152.309 24.4812 151.388 25.0949C149.513 26.3906 147.979 26.9361 146.751 26.7316C145.421 26.527 144.33 25.845 143.546 24.8562Z" fill="#151618"/>
</g>
<defs>
<clipPath id="clip0_75_506">
<rect width="188.485" height="70" fill="white"/>
</clipPath>
</defs>
</svg>
