<svg width="50" height="50" viewBox="0 0 50 50" fill="none" xmlns="http://www.w3.org/2000/svg">
<circle cx="25" cy="25" r="25" fill="#F8C60A" fill-opacity="0.2"/>
<g clip-path="url(#clip0_75_839)">
<path d="M38.9999 21.99C39.0005 21.6099 38.9005 21.2364 38.7099 20.9075C38.5193 20.5786 38.245 20.3061 37.9149 20.1175L26.1199 13.1175C25.78 12.9192 25.3935 12.8147 24.9999 12.8147C24.6064 12.8147 24.2199 12.9192 23.8799 13.1175L12.0674 20.1175C11.741 20.3112 11.4706 20.5865 11.2828 20.9164C11.095 21.2462 10.9962 21.6192 10.9962 21.9988C10.9962 22.3783 11.095 22.7514 11.2828 23.0812C11.4706 23.4111 11.741 23.6863 12.0674 23.88L15.4274 25.84V30.7575C15.4295 31.1419 15.5303 31.5192 15.7204 31.8533C15.9104 32.1873 16.1831 32.4669 16.5124 32.665L23.9499 36.9525C24.282 37.1364 24.6554 37.2328 25.0349 37.2328C25.4145 37.2328 25.7879 37.1364 26.1199 36.9525L33.5574 32.665C33.8867 32.4669 34.1595 32.1873 34.3495 31.8533C34.5396 31.5192 34.6404 31.1419 34.6424 30.7575V25.7875L36.8124 24.51V29.27H38.9999V21.99ZM32.4724 30.74L24.9999 35.045L17.6149 30.7575V27.135L23.8799 30.8625C24.221 31.0574 24.6071 31.16 24.9999 31.16C25.3928 31.16 25.7789 31.0574 26.1199 30.8625L32.4549 27.0825L32.4724 30.74ZM24.9999 28.9725L13.1874 21.9725L24.9999 14.955L36.8124 21.955L24.9999 28.9725Z" fill="#F8C60A"/>
</g>
<defs>
<clipPath id="clip0_75_839">
<rect width="28" height="28" fill="white" transform="translate(11 11)"/>
</clipPath>
</defs>
</svg>
