<svg width="100" height="71" viewBox="0 0 100 71" fill="none" xmlns="http://www.w3.org/2000/svg">
<g clip-path="url(#clip0_75_494)">
<path d="M97.7913 10.9668C97.2177 8.84709 96.0989 6.91463 94.5461 5.36183C92.9934 3.80903 91.061 2.69008 88.9413 2.11641C81.1811 0 49.9491 0 49.9491 0C49.9491 0 18.7155 0.0640623 10.9554 2.18047C8.83563 2.75418 6.90319 3.87319 5.35045 5.42606C3.79772 6.97893 2.67888 8.91147 2.10536 11.0312C-0.241905 24.8195 -1.15245 45.8297 2.16981 59.0664C2.7434 61.1861 3.86226 63.1186 5.41499 64.6714C6.96772 66.2242 8.90014 67.3431 11.0198 67.9168C18.78 70.0332 50.0128 70.0332 50.0128 70.0332C50.0128 70.0332 81.2452 70.0332 89.005 67.9168C91.1247 67.3432 93.0572 66.2243 94.61 64.6715C96.1628 63.1187 97.2817 61.1862 97.8554 59.0664C100.331 45.2586 101.094 24.2617 97.7913 10.9672V10.9668Z" fill="#FF0000"/>
<path d="M40.0082 50.0235L65.9176 35.0164L40.0082 20.0094V50.0235Z" fill="white"/>
</g>
<defs>
<clipPath id="clip0_75_494">
<rect width="100" height="70.3125" fill="white"/>
</clipPath>
</defs>
</svg>
