<svg width="58" height="42" viewBox="0 0 58 42" fill="none" xmlns="http://www.w3.org/2000/svg">
<path d="M2.3335 27.3333V16.6667C2.3335 15.9594 2.61445 15.2811 3.11454 14.781C3.61464 14.2809 4.29292 14 5.00016 14H12.1922C12.7189 14.0001 13.2339 13.8442 13.6722 13.552L24.8535 6.09599C25.2555 5.82779 25.7228 5.67386 26.2055 5.65066C26.6881 5.62746 27.168 5.73585 27.5939 5.96424C28.0197 6.19264 28.3755 6.53247 28.6232 6.94739C28.8709 7.36232 29.0012 7.83675 29.0002 8.31999V35.68C29.0002 36.1628 28.8692 36.6365 28.6212 37.0507C28.3731 37.4648 28.0172 37.8039 27.5915 38.0316C27.1659 38.2594 26.6863 38.3673 26.2041 38.3439C25.7219 38.3205 25.2551 38.1666 24.8535 37.8987L19.2628 34.172L13.6722 30.4453C13.2336 30.154 12.7186 29.9991 12.1922 30H5.00016C4.29292 30 3.61464 29.719 3.11454 29.2189C2.61445 28.7188 2.3335 28.0406 2.3335 27.3333Z" fill="#6CA0FA"/>
<path fill-rule="evenodd" clip-rule="evenodd" d="M26.6486 7.72675C26.5421 7.66965 26.4222 7.64255 26.3015 7.64835C26.1808 7.65415 26.064 7.69264 25.9635 7.75968L14.7817 15.216C14.0149 15.7273 13.1138 16.0001 12.1922 16C12.192 16 12.1923 16 12.1922 16H5.00016C4.82335 16 4.65378 16.0702 4.52876 16.1953C4.40373 16.3203 4.3335 16.4898 4.3335 16.6667V27.3333C4.3335 27.5101 4.40373 27.6797 4.52876 27.8047C4.65378 27.9297 4.82335 28 5.00016 28L12.1887 28C12.1893 28 12.1882 28 12.1887 28M26.1094 3.65297C26.9541 3.61236 27.7939 3.80204 28.5392 4.20174C29.2844 4.60144 29.907 5.19613 30.3405 5.92225C30.7735 6.64759 31.0015 7.47684 31.0002 8.32156C31.0002 8.32247 31.0002 8.32338 31.0002 8.32429L29.0002 8.31999L31.0002 8.32156V35.6797C31.0002 36.5244 30.771 37.3537 30.3369 38.0784C29.9028 38.8032 29.28 39.3965 28.5351 39.7951C27.7901 40.1937 26.951 40.3825 26.1071 40.3416C25.2632 40.3006 24.4463 40.0313 23.7435 39.5624L12.5656 32.1113L13.6722 30.4453L12.5629 32.1095L12.5656 32.1113C12.4561 32.0388 12.3269 31.9998 12.1956 32L5.00016 32C3.76248 32 2.5755 31.5083 1.70033 30.6332C0.825161 29.758 0.333496 28.571 0.333496 27.3333V16.6667C0.333496 15.429 0.825161 14.242 1.70033 13.3668C2.5755 12.4917 3.76248 12 5.00016 12H12.1922C12.3238 12 12.453 11.9611 12.5626 11.888L23.7435 4.43229C24.447 3.96294 25.2647 3.69357 26.1094 3.65297Z" fill="#6CA0FA"/>
<path fill-rule="evenodd" clip-rule="evenodd" d="M47.5858 0.585786C48.3668 -0.195262 49.6332 -0.195262 50.4142 0.585786L49 2C50.4142 0.585787 50.4135 0.585113 50.4142 0.585786L50.417 0.588585L50.4204 0.592009L50.429 0.600729L50.4534 0.625655C50.4728 0.645593 50.4984 0.672174 50.5297 0.705359C50.5923 0.77172 50.6779 0.864545 50.7834 0.983522C50.9941 1.2214 51.2843 1.56431 51.6269 2.00975C52.3117 2.89998 53.2096 4.20409 54.1032 5.90184C55.892 9.3006 57.6667 14.285 57.6667 20.6667C57.6667 27.0483 55.892 32.0327 54.1032 35.4315C53.2096 37.1292 52.3117 38.4334 51.6269 39.3236C51.2843 39.769 50.9941 40.1119 50.7834 40.3498C50.6779 40.4688 50.5923 40.5616 50.5297 40.628C50.4984 40.6612 50.4728 40.6877 50.4534 40.7077L50.429 40.7326L50.4204 40.7413L50.417 40.7447C50.4163 40.7454 50.4142 40.7475 49 39.3333L50.4142 40.7475C49.6332 41.5286 48.3668 41.5286 47.5858 40.7475C46.8056 39.9673 46.8047 38.7028 47.5833 37.9216L47.5807 37.9242C47.581 37.9239 47.5809 37.924 47.5833 37.9216L47.6201 37.8831C47.6551 37.8459 47.7127 37.7838 47.7896 37.6971C47.9434 37.5235 48.1741 37.2518 48.4564 36.8847C49.0216 36.15 49.7904 35.0374 50.5635 33.5685C52.108 30.6339 53.6667 26.285 53.6667 20.6667C53.6667 15.0483 52.108 10.6994 50.5635 7.76483C49.7904 6.29591 49.0216 5.18335 48.4564 4.44859C48.1741 4.08153 47.9434 3.80985 47.7896 3.63627C47.7127 3.54952 47.6551 3.48739 47.6201 3.45024L47.5848 3.41333C47.5842 3.4127 47.5853 3.41382 47.5848 3.41333C46.8049 2.63218 46.8051 1.36645 47.5858 0.585786ZM47.5833 37.9216C47.5835 37.9214 47.5831 37.9218 47.5833 37.9216ZM47.582 3.41043C47.5813 3.40966 47.5821 3.41052 47.582 3.41043ZM39.5858 8.58579C40.3668 7.80474 41.6332 7.80474 42.4142 8.58579L41 10C42.4142 8.58579 42.4136 8.58518 42.4142 8.58579L42.4167 8.58828L42.4196 8.59115L42.4264 8.59803L42.4443 8.61634L42.4968 8.67106C42.539 8.71554 42.5951 8.77603 42.6632 8.85223C42.7993 9.00454 42.9837 9.22016 43.2 9.49655C43.6319 10.0484 44.1954 10.8483 44.7558 11.8756C45.8762 13.9297 47 16.9243 47 20.6667C47 24.409 45.8762 27.4036 44.7558 29.4577C44.1954 30.4851 43.6319 31.2849 43.2 31.8368C42.9837 32.1132 42.7993 32.3288 42.6632 32.4811C42.5951 32.5573 42.539 32.6178 42.4968 32.6623L42.4443 32.717L42.4264 32.7353L42.4196 32.7422L42.4167 32.7451C42.4161 32.7457 42.4142 32.7475 41 31.3333L42.4142 32.7475C41.6332 33.5286 40.3668 33.5286 39.5858 32.7475C38.807 31.9688 38.8047 30.7077 39.5789 29.9261L39.593 29.9113C39.6095 29.8939 39.6393 29.862 39.6806 29.8158C39.7632 29.7233 39.8913 29.5743 40.05 29.3715C40.3681 28.9651 40.8046 28.3483 41.2442 27.5423C42.1238 25.9297 43 23.591 43 20.6667C43 17.7423 42.1238 15.4036 41.2442 13.791C40.8046 12.9851 40.3681 12.3682 40.05 11.9618C39.8913 11.759 39.7632 11.61 39.6806 11.5176C39.6393 11.4714 39.6095 11.4394 39.593 11.422L39.5789 11.4073C38.8047 10.6257 38.807 9.36454 39.5858 8.58579ZM39.5818 29.9231C39.5819 29.923 39.5817 29.9232 39.5818 29.9231ZM39.5842 29.9207C39.5844 29.9205 39.584 29.9209 39.5842 29.9207Z" fill="#6CA0FA"/>
</svg>
