<svg width="50" height="50" viewBox="0 0 50 50" fill="none" xmlns="http://www.w3.org/2000/svg">
<circle cx="25" cy="25" r="25" fill="#0DEA91" fill-opacity="0.2"/>
<path d="M34.625 12.75C33.8675 12.7497 33.1303 12.9952 32.5243 13.4498C31.9183 13.9043 31.4762 14.5432 31.2645 15.2706C31.0527 15.9979 31.0827 16.7743 31.35 17.4831C31.6174 18.1919 32.1075 18.7948 32.7468 19.2011L30.463 27.1946C30.3921 27.1901 30.3211 27.1877 30.25 27.1875C29.4971 27.1867 28.7643 27.4299 28.1613 27.8808L23.942 24.3647C24.1417 23.772 24.179 23.1367 24.05 22.5247C23.9209 21.9127 23.6303 21.3465 23.2082 20.8849C22.7862 20.4234 22.2481 20.0834 21.6501 19.9002C21.0521 19.7171 20.4159 19.6976 19.8078 19.8436C19.1997 19.9897 18.6418 20.2961 18.1922 20.7309C17.7426 21.1656 17.4177 21.713 17.2514 22.3158C17.085 22.9187 17.0832 23.5552 17.2462 24.159C17.4093 24.7628 17.7311 25.3119 18.1782 25.7492L15.7013 30.7033C15.5929 30.693 15.484 30.6877 15.375 30.6875C14.5365 30.6864 13.7254 30.986 13.089 31.5319C12.4525 32.0778 12.0329 32.8338 11.9062 33.6626C11.7796 34.4915 11.9543 35.3383 12.3987 36.0493C12.8431 36.7604 13.5277 37.2885 14.3282 37.5379C15.1288 37.7873 15.9922 37.7413 16.7618 37.4085C17.5314 37.0756 18.1561 36.4778 18.5226 35.7237C18.889 34.9695 18.973 34.1089 18.7591 33.2982C18.5453 32.4874 18.0478 31.7802 17.357 31.3049L19.6977 26.6243C20.2662 26.7811 20.8653 26.7914 21.4389 26.6541C22.0125 26.5168 22.542 26.2365 22.9779 25.8392L27.0631 29.2436C26.7857 29.8549 26.6899 30.5331 26.7873 31.1974C26.8846 31.8616 27.1709 32.4838 27.6121 32.9898C28.0532 33.4959 28.6306 33.8644 29.2754 34.0514C29.9201 34.2384 30.605 34.236 31.2485 34.0445C31.8919 33.8531 32.4667 33.4806 32.9044 32.9715C33.342 32.4624 33.624 31.8383 33.7167 31.1734C33.8095 30.5085 33.709 29.8309 33.4274 29.2215C33.1458 28.6122 32.6948 28.0966 32.1283 27.7364L34.4121 19.7429C34.4825 19.7472 34.5534 19.75 34.625 19.75C35.5533 19.75 36.4435 19.3813 37.0999 18.7249C37.7563 18.0685 38.125 17.1783 38.125 16.25C38.125 15.3217 37.7563 14.4315 37.0999 13.7751C36.4435 13.1187 35.5533 12.75 34.625 12.75ZM15.375 35.9375C15.0289 35.9375 14.6905 35.8349 14.4028 35.6426C14.115 35.4503 13.8907 35.177 13.7582 34.8572C13.6258 34.5374 13.5911 34.1856 13.6586 33.8461C13.7262 33.5066 13.8928 33.1948 14.1376 32.9501C14.3823 32.7053 14.6941 32.5387 15.0336 32.4711C15.3731 32.4036 15.7249 32.4383 16.0447 32.5707C16.3645 32.7032 16.6378 32.9275 16.8301 33.2153C17.0224 33.503 17.125 33.8414 17.125 34.1875C17.1245 34.6515 16.9399 35.0963 16.6119 35.4244C16.2838 35.7524 15.839 35.937 15.375 35.9375ZM20.625 25C20.2789 25 19.9405 24.8974 19.6528 24.7051C19.365 24.5128 19.1407 24.2395 19.0082 23.9197C18.8758 23.5999 18.8411 23.2481 18.9086 22.9086C18.9762 22.5691 19.1428 22.2573 19.3876 22.0126C19.6323 21.7678 19.9441 21.6012 20.2836 21.5336C20.6231 21.4661 20.9749 21.5008 21.2947 21.6332C21.6145 21.7657 21.8878 21.99 22.0801 22.2778C22.2724 22.5655 22.375 22.9039 22.375 23.25C22.3745 23.714 22.1899 24.1588 21.8619 24.4869C21.5338 24.8149 21.089 24.9995 20.625 25ZM30.25 32.4375C29.9039 32.4375 29.5655 32.3349 29.2778 32.1426C28.99 31.9503 28.7657 31.677 28.6332 31.3572C28.5008 31.0374 28.4661 30.6856 28.5336 30.3461C28.6012 30.0066 28.7678 29.6948 29.0126 29.4501C29.2573 29.2053 29.5691 29.0387 29.9086 28.9711C30.2481 28.9036 30.5999 28.9383 30.9197 29.0707C31.2395 29.2032 31.5128 29.4275 31.7051 29.7153C31.8974 30.003 32 30.3414 32 30.6875C31.9995 31.1515 31.8149 31.5963 31.4869 31.9244C31.1588 32.2524 30.714 32.437 30.25 32.4375ZM34.625 18C34.2789 18 33.9405 17.8974 33.6528 17.7051C33.365 17.5128 33.1407 17.2395 33.0082 16.9197C32.8758 16.5999 32.8411 16.2481 32.9086 15.9086C32.9762 15.5691 33.1428 15.2573 33.3876 15.0126C33.6323 14.7678 33.9441 14.6012 34.2836 14.5336C34.6231 14.4661 34.9749 14.5008 35.2947 14.6332C35.6145 14.7657 35.8878 14.99 36.0801 15.2778C36.2724 15.5655 36.375 15.9039 36.375 16.25C36.3745 16.714 36.1899 17.1588 35.8619 17.4869C35.5338 17.8149 35.089 17.9995 34.625 18Z" fill="#0DEA91"/>
</svg>
